<?xml version="1.0" standalone="no"?>
<!DOCTYPE svg PUBLIC "-//W3C//DTD SVG 20010904//EN"
 "http://www.w3.org/TR/2001/REC-SVG-20010904/DTD/svg10.dtd">
<svg version="1.0" xmlns="http://www.w3.org/2000/svg"
 width="500.000000pt" height="500.000000pt" viewBox="0 0 500.000000 500.000000"
 preserveAspectRatio="xMidYMid meet">

<g transform="translate(0.000000,500.000000) scale(0.100000,-0.100000)"
fill="#000000" stroke="none">
<path d="M1390 3690 l0 -190 1103 2 1102 3 3 188 2 187 -1105 0 -1105 0 0
-190z m504 124 c43 -16 38 -81 -8 -102 -21 -10 -21 -10 -1 -17 38 -13 50 -22
53 -43 8 -52 -43 -82 -139 -82 l-47 0 -1 117 c-1 64 -4 120 -7 125 -6 9 126
11 150 2z m950 0 c43 -16 38 -81 -8 -102 -21 -10 -21 -10 -1 -17 42 -14 50
-23 50 -56 0 -29 -5 -36 -35 -51 -21 -10 -60 -17 -95 -18 l-60 0 5 120 c3 75
1 122 -5 124 -16 7 132 7 149 0z m-770 -100 c23 -22 22 -129 0 -138 -24 -9
-36 3 -31 30 3 17 0 24 -12 25 -13 1 -13 2 2 6 9 2 17 10 17 18 0 21 -28 38
-55 31 -20 -5 -23 -3 -18 11 4 10 11 21 17 25 19 13 64 9 80 -8z m104 -43 c3
-43 7 -54 22 -58 16 -4 18 -9 9 -24 -12 -23 -42 -25 -60 -3 -8 9 -16 46 -19
81 -6 64 -5 64 20 61 23 -3 25 -8 28 -57z m98 -4 c1 -31 4 -60 8 -64 3 -3 -3
-13 -15 -21 -31 -21 -40 -4 -42 77 -2 71 -2 72 23 69 23 -3 25 -7 26 -61z
m150 55 c13 -8 34 -46 34 -61 0 -6 -21 -11 -50 -11 -37 0 -50 -4 -50 -15 0
-20 37 -38 69 -32 l26 5 -24 -19 c-34 -27 -75 -24 -100 7 -12 15 -21 35 -21
46 0 25 26 75 42 81 20 8 62 8 74 -1z m108 -14 c3 -13 6 -46 6 -75 0 -41 4
-53 18 -56 9 -3 -3 -5 -28 -6 l-45 -1 0 72 c0 55 4 75 15 80 24 11 27 9 34
-14z m74 5 c-2 -11 -14 -19 -31 -21 -29 -4 -35 6 -15 26 19 19 50 15 46 -5z
m416 2 c21 -22 20 -131 -1 -139 -21 -9 -33 2 -33 29 0 13 -6 26 -12 28 -8 3
-6 6 5 6 9 1 17 7 17 15 0 22 -28 39 -55 32 -20 -5 -23 -3 -18 11 4 10 11 21
17 25 19 13 64 9 80 -7z m106 -41 c0 -47 3 -57 20 -61 16 -4 18 -9 9 -24 -12
-23 -42 -25 -59 -4 -7 8 -16 44 -19 80 l-7 65 28 0 c27 0 28 -1 28 -56z m100
-17 c4 -58 2 -70 -12 -78 -24 -13 -32 5 -38 84 -5 68 -5 68 20 65 23 -3 25 -7
30 -71z m-1220 -47 c0 -11 5 -20 11 -20 5 0 7 -4 4 -10 -17 -28 -73 4 -61 35
8 23 46 19 46 -5z m950 0 c0 -11 5 -20 11 -20 5 0 7 -4 4 -10 -17 -28 -73 4
-61 35 8 23 46 19 46 -5z"/>
<path d="M1810 3755 c0 -48 2 -55 20 -55 37 0 54 65 24 94 -31 31 -44 20 -44
-39z"/>
<path d="M1810 3635 c0 -48 2 -55 20 -55 25 0 60 34 60 58 0 25 -31 52 -58 52
-20 0 -22 -5 -22 -55z"/>
<path d="M2760 3705 c0 -58 1 -108 3 -112 2 -8 55 -8 63 -1 2 3 7 19 10 36 6
27 2 33 -25 50 -24 15 -28 21 -17 25 38 15 21 107 -19 107 -12 0 -15 -19 -15
-105z"/>
<path d="M2367 3713 c-4 -3 -7 -17 -7 -30 0 -18 5 -23 25 -23 25 0 31 13 19
44 -6 16 -26 21 -37 9z"/>
<path d="M2520 2278 c0 -952 3 -1198 13 -1198 12 0 26 8 245 144 302 189 392
258 493 382 143 177 226 370 259 599 5 40 10 327 10 670 l0 600 -510 0 -510 0
0 -1197z m615 461 c78 -14 145 -50 173 -92 90 -135 23 -290 -160 -371 l-52
-23 80 -5 c96 -7 147 -30 197 -88 80 -93 59 -238 -47 -319 -105 -81 -229 -103
-551 -99 -212 3 -220 4 -220 23 0 16 8 21 38 23 l37 3 0 445 0 444 -41 0 c-36
0 -40 2 -37 23 3 22 4 22 241 29 131 3 241 9 244 12 9 9 31 7 98 -5z"/>
<path d="M2870 2466 l0 -214 43 5 c60 7 106 32 141 76 30 37 31 43 31 131 0
85 -2 96 -28 135 -32 48 -91 80 -149 81 l-38 0 0 -214z"/>
<path d="M2870 1996 l0 -206 33 0 c62 0 152 21 188 45 54 35 72 82 67 174 -3
62 -8 82 -28 109 -42 57 -83 75 -177 80 l-83 5 0 -207z"/>
<path d="M1960 3199 c-36 -4 -119 -8 -185 -8 -188 0 -173 3 -167 -26 4 -21 10
-25 38 -25 l34 0 -2 -442 -3 -443 -30 0 c-25 0 -30 -4 -33 -27 l-3 -28 268 0
c292 0 365 9 460 56 124 60 181 191 138 315 -31 88 -114 139 -225 139 l-65 0
65 35 c150 80 204 217 138 348 -21 41 -89 91 -148 107 -41 11 -186 11 -280 -1z
m91 -90 c94 -47 125 -216 58 -314 -25 -37 -98 -75 -143 -75 l-26 0 0 209 0
210 38 -6 c20 -3 53 -14 73 -24z m62 -479 c28 -13 56 -37 74 -62 25 -37 28
-50 28 -117 0 -65 -3 -81 -25 -109 -35 -48 -87 -71 -175 -79 l-75 -6 0 203 0
203 64 -6 c35 -3 85 -16 109 -27z"/>
</g>
</svg>
